# xmcd
#
# Track frame offsets:
#	150
#	12926
#	23093
#	28677
#	31977
#	45993
#	57502
#	68837
#	82470
#	94871
#	102255
#	116942
#	142550
#	163997
#	183026
#	199759
#	214062
#	226419
#	240153
#	254116
#
# Disc length: 3555 seconds
#
# Revision: 1
# Processed by: cddbd v1.5.1PL0 Copyright (c) Steve Scherf et al.
# Submitted via: EasyCDDAExtractor 5.0.6
#
DISCID=110de114
DTITLE=蔣光超 - 蔣光超專輯
DYEAR=1900
DGENRE=Pop
TTITLE0=電影包青天主題曲
TTITLE1=電影大醉俠插曲一
TTITLE2=電影大醉俠插曲二
TTITLE3=電影大醉俠插曲三
TTITLE4=電影火星上的愛情(一)
TTITLE5=電影火星上的愛情(二)
TTITLE6=ByeBye王老五
TTITLE7=等呀等
TTITLE8=老爺車
TTITLE9=雙喜臨門(vs姚蘇蓉)
TTITLE10=問你愛不愛我
TTITLE11=你真美/漁翁樂/搖船曲(vs姚蘇蓉)
TTITLE12=重逢•重相逢(vs姚蘇蓉)
TTITLE13=草原情歌/青春舞曲/杭州姑娘/蒙古牧歌(vs姚蘇蓉)
TTITLE14=雞尾歌
TTITLE15=王老五(一)
TTITLE16=王老五(二)
TTITLE17=愛秋香
TTITLE18=青年忙
TTITLE19=麻將經
EXTD=
EXTT0=
EXTT1=
EXTT2=
EXTT3=
EXTT4=
EXTT5=
EXTT6=
EXTT7=
EXTT8=
EXTT9=
EXTT10=
EXTT11=
EXTT12=
EXTT13=
EXTT14=
EXTT15=
EXTT16=
EXTT17=
EXTT18=
EXTT19=
PLAYORDER=
